<svg height="64" preserveAspectRatio="none" viewBox="0 0 64 64" width="64" xmlns="http://www.w3.org/2000/svg" xmlns:xlink="http://www.w3.org/1999/xlink"><linearGradient id="a" gradientUnits="userSpaceOnUse" x1="31.999512" x2="31.99951" y1="2.716797" y2="48.045105"><stop offset="0" stop-color="#fff"/><stop offset=".509091" stop-color="#ff1f3f"/><stop offset=".6614935" stop-color="#ff2243"/><stop offset=".8165283" stop-color="#ff2c4f"/><stop offset=".9723371" stop-color="#ff3c64"/><stop offset="1" stop-color="#ff3f68"/></linearGradient><g opacity=".86" transform="matrix(.4470969 0 0 .4470969 17.69286 3.416279)"><path d="m32 56.78125-1.114258-.628906c-.715332-.404297-17.588379-10.03125-23.3300779-22.368164-3.2949219-7.081055-3.1850586-14.567383.2949218-20.025391 2.6503911-4.1562499 7.0039061-6.540039 11.9443361-6.540039 6.132812 0 10.002929 3.682617 12.205078 7.576172 2.202148-3.892578 6.073242-7.5751954 12.205078-7.5751954 4.94043 0 9.294922 2.3837891 11.944336 6.5410154 3.480469 5.457031 3.589844 12.942383.294922 20.023438-5.741211 12.336914-22.614258 21.963867-23.330078 22.368164zm-12.205078-45.02832c-3.409668 0-6.293945 1.578125-8.121094 4.444336-2.642578 4.144531-2.6455077 10.003906-.0068 15.672851 4.342774 9.332031 16.568848 17.359375 20.332031 19.667969 3.762696-2.310547 15.999024-10.352539 20.333985-19.667969 2.638672-5.668945 2.635742-11.527344-.0068-15.671875-1.827148-2.866211-4.710938-4.444336-8.121094-4.444336-8.176758 0-9.953125 9.833985-9.970703 9.933594l-2.234447 13.06543-2.234863-13.06543c-.0708-.399414-1.851563-9.93457-9.970215-9.93457z" fill="#c10021"/><path d="m32 54.177734s-16.888184-9.53125-22.3886719-21.350586c-5.5004883-11.819335 0-23.3408198 10.1835939-23.3408198 10.183594 0 12.205078 11.8193358 12.205078 11.8193358s2.021484-11.8183593 12.205078-11.8183593 15.68457 11.5205073 10.183594 23.3398433c-5.5 11.819336-22.388672 21.350586-22.388672 21.350586z" fill="url(#a)"/><g fill="#fff"><path d="m11.942871 18.038086c.369141-4.696289 5.882813-5.076172 7.816406-1.933594 1.933594 3.142578-8.380371 9.105469-7.816406 1.933594z"/><path d="m32.330078 48.417969c3.179688 0 19.338867-9.427735 19.338867-16.59961s-5.399414-6.286132-10.15332 1.852539c-4.753906 8.138672-7.816406 10.959961-9.991699 11.765625-2.175293.805665-1.369629 2.981446.806152 2.981446z" opacity=".25"/></g></g></svg>