<svg viewBox="0 0 72 72" xmlns="http://www.w3.org/2000/svg"><path d="m43 36.1645c0-4.7003-3.8103-8.5106-8.5106-8.5106-3.2363 0-6.0501 1.8067-7.4894 4.4662-1.4392-2.6595-4.2531-4.4662-7.4894-4.4662-4.7003 0-8.5106 3.8103-8.5106 8.5106 0 2.0221.7083 3.8769 1.8862 5.337l-.0029.0023 14.1167 17.4962 14.1167-17.4962-.0029-.0023c1.1779-1.4602 1.8862-3.315 1.8862-5.337z" fill="#ffa7c0"/><path d="m61 17.5213c0-2.4971-2.0242-4.5213-4.5213-4.5213-1.7193 0-3.2141.9598-3.9787 2.3727-.7646-1.4129-2.2594-2.3727-3.9787-2.3727-2.4971 0-4.5213 2.0242-4.5213 4.5213 0 1.0742.3763 2.0596 1.002 2.8353l-.0015.0012 7.4995 9.2948 7.4995-9.2948-.0015-.0012c.6257-.7757 1.002-1.7611 1.002-2.8353z" fill="#ffa7c0"/><g fill="none" stroke="#000" stroke-linejoin="round" stroke-miterlimit="10" stroke-width="2"><path d="m43 36.1645c0-4.7003-3.8103-8.5106-8.5106-8.5106-3.2363 0-6.0501 1.8067-7.4894 4.4662-1.4392-2.6595-4.2531-4.4662-7.4894-4.4662-4.7003 0-8.5106 3.8103-8.5106 8.5106 0 2.0221.7083 3.8769 1.8862 5.337l-.0029.0023 14.1167 17.4962 14.1167-17.4962-.0029-.0023c1.1779-1.4602 1.8862-3.315 1.8862-5.337z"/><path d="m61 17.5213c0-2.4971-2.0242-4.5213-4.5213-4.5213-1.7193 0-3.2141.9598-3.9787 2.3727-.7646-1.4129-2.2594-2.3727-3.9787-2.3727-2.4971 0-4.5213 2.0242-4.5213 4.5213 0 1.0742.3763 2.0596 1.002 2.8353l-.0015.0012 7.4995 9.2948 7.4995-9.2948-.0015-.0012c.6257-.7757 1.002-1.7611 1.002-2.8353z"/></g></svg>